<svg width="25" height="25" viewBox="0 0 25 25" fill="none" xmlns="http://www.w3.org/2000/svg">
<path fill-rule="evenodd" clip-rule="evenodd" d="M0.859375 0.606445H4.18945H21.5293H24.8594V3.93652V3.96484V21.2478V21.2764V24.6064H21.5293H4.18945H0.859375V21.2764V21.2478V3.96485V3.93652V0.606445ZM21.0783 6.80638L18.5841 18.5738C18.3959 19.4043 17.9052 19.611 17.2078 19.2197L13.4074 16.4181L11.5736 18.1825C11.3706 18.3855 11.2009 18.5553 10.8098 18.5553L11.0828 14.6833L18.1265 8.31606C18.4328 8.04291 18.0601 7.89157 17.6506 8.16472L8.9428 13.6498L5.19404 12.476C4.37861 12.2213 4.36385 11.6602 5.36376 11.269L20.0268 5.61783C20.7057 5.36314 21.2997 5.76916 21.0783 6.80638Z" fill="white"/>
</svg>
