<svg width="40" height="40" viewBox="0 0 40 40" fill="none" xmlns="http://www.w3.org/2000/svg">
<g clip-path="url(#clip0_331_1067)">
<path fill-rule="evenodd" clip-rule="evenodd" d="M40 0H0V40H40V0ZM21.7556 34.8368C30.9984 34.8368 38.4911 27.3441 38.4911 18.1013C38.4911 8.85851 30.9984 1.36576 21.7556 1.36576C12.5128 1.36576 5.0201 8.85851 5.0201 18.1013C5.0201 27.3441 12.5128 34.8368 21.7556 34.8368Z" fill="black"/>
<path fill-rule="evenodd" clip-rule="evenodd" d="M8.57078 0C6.29772 -1.6761e-07 4.11771 0.902744 2.51011 2.50973C0.902501 4.11672 -0.00108021 6.29638 -0.00195312 8.56944V31.4301C-0.00195312 33.7037 0.901243 35.8842 2.50894 37.4919C4.11664 39.0996 6.29715 40.0028 8.57078 40.0028H31.4314C33.7045 40.0019 35.8841 39.0983 37.4911 37.4907C39.0981 35.8831 40.0008 33.7031 40.0008 31.4301V8.56944C40 6.29695 39.0968 4.11779 37.4899 2.51089C35.8831 0.904002 33.7039 0.000872524 31.4314 0H8.57078ZM33.8972 8.58261C33.8972 9.23746 33.6371 9.86548 33.174 10.3285C32.711 10.7916 32.083 11.0517 31.4281 11.0517C30.7733 11.0517 30.1452 10.7916 29.6822 10.3285C29.2191 9.86548 28.959 9.23746 28.959 8.58261C28.959 7.92776 29.2191 7.29974 29.6822 6.83669C30.1452 6.37364 30.7733 6.1135 31.4281 6.1135C32.083 6.1135 32.711 6.37364 33.174 6.83669C33.6371 7.29974 33.8972 7.92776 33.8972 8.58261ZM20.0044 13.1521C18.1883 13.1521 16.4465 13.8735 15.1624 15.1577C13.8782 16.4419 13.1567 18.1836 13.1567 19.9998C13.1567 21.8159 13.8782 23.5576 15.1624 24.8418C16.4465 26.126 18.1883 26.8474 20.0044 26.8474C21.8205 26.8474 23.5622 26.126 24.8464 24.8418C26.1306 23.5576 26.852 21.8159 26.852 19.9998C26.852 18.1836 26.1306 16.4419 24.8464 15.1577C23.5622 13.8735 21.8205 13.1521 20.0044 13.1521ZM9.8613 19.9998C9.8613 17.3105 10.9296 14.7314 12.8312 12.8298C14.7328 10.9283 17.3119 9.85996 20.0011 9.85996C22.6903 9.85996 25.2694 10.9283 27.171 12.8298C29.0726 14.7314 30.1409 17.3105 30.1409 19.9998C30.1409 22.689 29.0726 25.2681 27.171 27.1697C25.2694 29.0712 22.6903 30.1395 20.0011 30.1395C17.3119 30.1395 14.7328 29.0712 12.8312 27.1697C10.9296 25.2681 9.8613 22.689 9.8613 19.9998Z" fill="black"/>
</g>
<defs>
<clipPath id="clip0_331_1067">
<rect width="40" height="40" fill="white"/>
</clipPath>
</defs>
</svg>
