<svg width="169" height="41" viewBox="0 0 169 41" fill="none" xmlns="http://www.w3.org/2000/svg">
<path d="M0.429484 22.2634V21.3514C0.429484 16.3834 4.24548 12.5674 12.7175 12.5674C20.9975 12.5674 24.5015 15.7834 24.9575 21.0394H15.3815C15.1655 20.2474 14.4695 19.5274 12.6935 19.5274C10.7975 19.5274 9.90949 20.4394 9.90949 21.7114V21.9034C9.90949 23.1754 10.7975 24.0874 12.6935 24.0874C14.4695 24.0874 15.1655 23.3674 15.3815 22.5754H24.9575C24.5015 27.8314 20.9975 31.0474 12.7175 31.0474C4.24548 31.0474 0.429484 27.2314 0.429484 22.2634ZM38.3118 31.0474C29.8158 31.0474 25.9998 27.2314 25.9998 22.2634V21.3514C25.9998 16.3834 29.8158 12.5674 38.3118 12.5674C46.8318 12.5674 50.6478 16.3834 50.6478 21.3514V22.2634C50.6478 27.2314 46.8318 31.0474 38.3118 31.0474ZM38.3118 24.0874C40.2558 24.0874 41.1678 23.1754 41.1678 21.9034V21.7114C41.1678 20.4394 40.2558 19.5274 38.3118 19.5274C36.3678 19.5274 35.4798 20.4394 35.4798 21.7114V21.9034C35.4798 23.1754 36.3678 24.0874 38.3118 24.0874ZM51.2849 24.2794H60.9329C61.0529 24.8794 61.5329 25.4074 63.6209 25.4074C65.7329 25.4074 66.0929 25.0234 66.0929 24.6634C66.0929 24.3274 65.8049 23.9674 62.9489 23.7994C53.4449 23.3434 51.5729 21.4474 51.5729 18.3514C51.5729 15.2794 54.2849 12.5674 63.0449 12.5674C71.8289 12.5674 74.9249 15.7354 75.1649 19.3114H65.5649C65.4209 18.7354 64.9409 18.2074 63.0689 18.2074C61.1489 18.2074 60.7649 18.5674 60.7649 18.9274C60.7649 19.3114 61.0769 19.6234 63.9089 19.8394C73.7729 20.3194 75.5969 22.1434 75.5969 25.2634C75.5969 28.2874 72.8369 31.0474 63.6449 31.0474C54.4049 31.0474 51.4769 28.0714 51.2849 24.2794ZM87.0749 21.4954L89.8109 13.0474H99.2189L92.4989 30.5674H81.7469L74.8349 13.0474H84.2429L87.0749 21.4954ZM98.1845 23.3674H107.352C107.472 24.3514 108.096 24.9754 110.16 24.9754C112.224 24.9754 112.632 24.5674 112.632 24.1834C112.632 23.7754 112.368 23.4874 110.472 23.4874H108.672V20.1034H110.472C111.96 20.1034 112.2 19.8394 112.2 19.4314C112.2 19.0474 111.816 18.6394 110.04 18.6394C108.168 18.6394 107.544 19.2634 107.4 20.2474H98.2325C98.5445 15.8554 101.688 12.5674 110.352 12.5674C118.656 12.5674 121.32 15.2314 121.32 17.7034C121.32 20.1754 119.184 21.3514 116.496 21.7354V21.7834C119.304 22.1674 121.872 23.4634 121.872 26.0794C121.872 28.4314 119.256 31.0474 110.472 31.0474C101.592 31.0474 98.4965 27.9034 98.1845 23.3674ZM145.053 27.6154V28.3834C145.053 29.5354 145.197 30.0394 145.677 30.5674H135.981C135.549 30.1354 135.261 29.5114 135.261 28.3834V26.6074C135.261 25.7434 134.997 25.4794 134.229 25.4794H131.781V30.5674H122.997V13.0474H136.269C143.109 13.0474 145.485 15.3754 145.485 18.3994C145.485 21.4474 142.941 22.7674 140.349 23.1754V23.2234C143.805 23.5354 145.053 24.6874 145.053 27.6154ZM131.781 20.9194H134.997C136.077 20.9194 136.437 20.5594 136.437 19.9834C136.437 19.3834 136.077 19.0474 134.997 19.0474H131.781V20.9194ZM166.8 30.5674H146.88V13.0474H166.656V18.5434H155.64V19.9354H166.32V23.6074H155.64V25.0234H166.8V30.5674Z" fill="#6600FF"/>
</svg>
