<?xml version="1.0" encoding="UTF-8"?>
<svg id="Layer_11" data-name="Layer 11" xmlns="http://www.w3.org/2000/svg" viewBox="0 0 168.22 168.22">
  <defs>
    <style>
      .cls-1 {
        fill: #f1f2f2;
      }

      .cls-2 {
        fill: #49276c;
      }

      .cls-3 {
        fill: #70b0bf;
      }
    </style>
  </defs>
  <path class="cls-1" d="M69.73,80.39c-5.77,0-10.46-4.69-10.46-10.46s4.69-10.46,10.46-10.46,10.46,4.69,10.46,10.46-4.69,10.46-10.46,10.46Zm0-10.91c-.25,0-.46,.2-.46,.46s.21,.46,.46,.46,.46-.2,.46-.46-.2-.46-.46-.46Z"/>
  <path class="cls-1" d="M98.49,80.39c-5.76,0-10.45-4.69-10.45-10.46s4.69-10.46,10.45-10.46,10.46,4.69,10.46,10.46-4.69,10.46-10.46,10.46Zm0-10.91c-.25,0-.45,.2-.45,.46s.2,.46,.45,.46,.46-.2,.46-.46-.2-.46-.46-.46Z"/>
  <path class="cls-1" d="M84.18,105.79c-.8,0-1.57-.05-2.29-.14-2.22-.25-4.35-.92-6.25-1.99-3.26-1.83-5.85-4.76-7.69-8.71-.79-1.69-1.45-3.6-1.96-5.66-1.74-7.04-1.26-13.98-1.24-14.27,.2-2.75,2.62-4.83,5.35-4.62,2.75,.2,4.82,2.59,4.62,5.34h0c0,.06-.38,5.69,.97,11.14,.35,1.43,.79,2.72,1.31,3.83,.94,2.02,2.12,3.43,3.52,4.22,.75,.42,1.58,.68,2.55,.79,.38,.05,.72,.07,1.1,.07,2.04,0,3.59-.64,4.89-2.02,4.2-4.44,4.61-14.82,4.43-18.1-.15-2.76,1.96-5.12,4.71-5.27,2.75-.16,5.12,1.95,5.27,4.71,.1,1.74,.72,17.21-7.15,25.53-3.19,3.37-7.39,5.15-12.16,5.15Z"/>
  <path class="cls-1" d="M70.56,108.74c-2.9,0-5.41-1.11-7.07-3.19-2.36-2.95-2.72-6.9-.95-10.57,1.71-3.55,5.67-7.15,9.94-7.15,2.76,0,5,2.24,5,5,0,.54-.08,1.05-.24,1.53,.77-.13,1.58-.09,2.38,.17,2.63,.84,4.08,3.66,3.23,6.29-1.37,4.28-6.16,6.99-10.03,7.71-.77,.14-1.52,.21-2.25,.21Zm2.33-10.93c-.16,.09-.33,.22-.5,.38,.25-.12,.48-.26,.67-.4-.06,0-.11,.01-.17,.02Zm-.42,.02h0Z"/>
  <path class="cls-1" d="M79.94,96.91c-.26,0-.52-.02-.79-.06-2.73-.43-4.59-2.99-4.16-5.72,.4-2.5-1.72-6.49-1.66-9.55,.07-4.07,2.23-6.96,2.23-7.02-.1-2.76,2.06-5.07,4.82-5.17,2.76-.08,5.07,2.06,5.17,4.82,.02,.47,.39,11.7-.68,18.49-.39,2.46-2.52,4.22-4.93,4.22Z"/>
  <path class="cls-1" d="M86.77,96.91c-2.56,0-4.74-1.95-4.97-4.55-.63-7.02,.13-18.39,.17-18.87,.19-2.75,2.56-4.83,5.33-4.65,2.75,.19,4.84,2.57,4.65,5.33,0,.06,3.06,3.79,2.67,8.19-.48,5.3-3.08,6.54-2.85,9.09,.25,2.75-1.78,5.18-4.53,5.43-.15,.01-.31,.02-.46,.02Z"/>
  <path class="cls-3" d="M78.08,99.3c-1.03,3.21-8.17,6.27-10.69,3.13-3.12-3.9,1.98-9.59,5.08-9.59,1.25,2.68,3.04,5.03,5.61,6.46Z"/>
  <circle class="cls-3" cx="69.73" cy="69.93" r="5.46" transform="translate(-29.03 69.79) rotate(-45)"/>
  <path class="cls-3" d="M103.95,69.93c0,3.01-2.44,5.46-5.46,5.46s-5.45-2.44-5.45-5.46,2.44-5.46,5.45-5.46,5.46,2.44,5.46,5.46Z"/>
  <path class="cls-2" d="M69.73,76.97c-3.88,0-7.04-3.16-7.04-7.04s3.16-7.04,7.04-7.04,7.04,3.16,7.04,7.04-3.16,7.04-7.04,7.04Zm0-10.91c-2.13,0-3.87,1.74-3.87,3.87s1.74,3.87,3.87,3.87,3.87-1.74,3.87-3.87-1.74-3.87-3.87-3.87Z"/>
  <path class="cls-2" d="M98.49,76.97c-3.88,0-7.03-3.16-7.03-7.04s3.16-7.04,7.03-7.04,7.04,3.16,7.04,7.04-3.16,7.04-7.04,7.04Zm0-10.91c-2.13,0-3.86,1.74-3.86,3.87s1.73,3.87,3.86,3.87,3.87-1.74,3.87-3.87-1.74-3.87-3.87-3.87Z"/>
  <path class="cls-2" d="M84.18,102.37c-.67,0-1.28-.04-1.86-.11-1.82-.2-3.51-.74-5.01-1.58-2.63-1.47-4.74-3.88-6.27-7.17-.7-1.5-1.29-3.19-1.74-5.03-1.61-6.52-1.17-12.93-1.15-13.2,.06-.87,.84-1.53,1.7-1.46,.87,.06,1.53,.82,1.47,1.7,0,.06-.43,6.19,1.06,12.21,.41,1.64,.92,3.14,1.54,4.45,1.25,2.68,2.91,4.61,4.95,5.75,1.13,.64,2.43,1.04,3.84,1.2,.47,.06,.95,.09,1.48,.09,3,0,5.41-1.01,7.37-3.08,6.07-6.41,5.37-20.5,5.36-20.64-.05-.87,.62-1.62,1.5-1.67,.87-.07,1.62,.62,1.67,1.49,.04,.63,.79,15.58-6.22,22.99-2.56,2.71-5.82,4.08-9.68,4.08Z"/>
  <path class="cls-2" d="M70.55,105.33c-1.86,0-3.38-.66-4.39-1.91-1.54-1.93-1.74-4.46-.54-6.96,1.4-2.92,4.42-5.21,6.86-5.21,.88,0,1.58,.71,1.58,1.58s-.71,1.58-1.58,1.58c-.96,0-3,1.33-4,3.41-.68,1.41-.62,2.62,.16,3.6,.74,.92,2.33,.74,2.99,.62,2.38-.44,4.58-2.07,4.96-3.24,.27-.83,1.16-1.29,1.99-1.02,.83,.27,1.29,1.16,1.02,1.99-.89,2.78-4.48,4.85-7.4,5.39-.57,.1-1.12,.16-1.64,.16Z"/>
  <path class="cls-2" d="M79.94,92.68s-.08,0-.12,0c-.42-.07-.7-.46-.64-.88,.99-6.24,.62-17.28,.61-17.39-.01-.42,.32-.78,.74-.79,.41,0,.78,.32,.79,.74,.02,.46,.38,11.29-.63,17.68-.06,.38-.39,.65-.76,.65Z"/>
  <path class="cls-2" d="M86.78,92.68c-.39,0-.73-.3-.76-.7-.6-6.69,.14-17.73,.17-18.2,.03-.42,.38-.75,.82-.71,.42,.03,.74,.4,.71,.82,0,.11-.77,11.39-.18,17.96,.04,.42-.27,.79-.69,.83-.02,0-.05,0-.07,0Z"/>
</svg>