<?xml version="1.0" encoding="UTF-8"?>
<svg id="Layer_11" data-name="Layer 11" xmlns="http://www.w3.org/2000/svg" viewBox="0 0 168.22 168.22">
  <defs>
    <style>
      .cls-1 {
        fill: #131514;
      }

      .cls-2 {
        fill: #f5f5f5;
      }

      .cls-3 {
        fill: #ab884c;
      }
    </style>
  </defs>
  <path class="cls-2" d="M129.51,30.76c0,3.14-2.55,5.69-5.69,5.69-.34,0-.68-.03-1.01-.09,.05,2.29,.22,4.66,.4,7.05,.57,7.92-4.15,11.11-7.59,13.44-2.46,1.67-3.99,2.79-4.76,5.05-1.5,4.42-3.84,7.09-6.29,8.89,2.53,1.37,4.25,4.05,4.25,7.12,0,4.46-3.63,8.08-8.08,8.08-.17,0-.34,0-.51-.02,.1,.43,.16,.87,.16,1.33,0,3.11-2.53,5.66-5.63,5.69,.17,.59,.33,1.17,.49,1.75,.8,2.88,1.5,5.91,2.16,9.23,.78,3.97,1.42,8.11,1.92,12.34,.31,2.67,.58,5.5,.79,8.4,.2,2.64,.34,5.37,.44,8.34,.09,3.1,.12,6.01,.09,8.67-.03,4.26-.21,7.16-.26,7.94,0,.05,0,.1,0,.15-.06,.52-.19,1.01-.4,1.49-3.97,8.97-11.79,13.94-12.67,14.48-.74,.44-1.56,.67-2.4,.67-.96,0-1.87-.29-2.66-.84-1.34-.95-2.73-2.17-4.22-3.75-2.53-2.68-4.67-5.67-5.72-7.22-1.13-1.64-1.81-2.77-1.88-2.91-.32-.53-.55-1.19-.62-1.87-.18-1.78-.3-3.52-.39-5.36-.13-2.34-.2-4.8-.2-7.31,0-3.09,.09-6.21,.28-9.29,.29-5.15,.86-10.46,1.68-15.78,.47-3.16,1.06-6.42,1.8-9.97,.78-3.7,1.56-6.81,2.19-9.17h-.06c-3.13,0-5.69-2.56-5.69-5.69,0-.45,.06-.9,.16-1.33-.09,0-.17,0-.26,0-4.46,0-8.08-3.63-8.08-8.08,0-3.09,1.74-5.77,4.29-7.14-2.82-1.65-5.73-4.47-7.24-10.16-.68-2.56-2.28-3.68-5.05-5.46-4.1-2.62-10.29-6.6-8.34-18.31,.03-.16,.05-.32,.07-.47-.28,.06-.58,.08-.87,.08-3.13,0-5.69-2.55-5.69-5.69s2.55-5.68,5.68-5.69c-1.16-3.34-2.78-5.11-2.91-5.24-1-1-1.49-2.51-1.24-3.97,.23-1.45,1.16-2.72,2.48-3.38,3.06-1.52,6.7-2.3,10.82-2.3,2.5,0,4.73,.28,6.36,.58,2.79-2.3,5.47-3.39,8.3-3.39,2.05,0,3.75,.59,5.11,1.07,.89,.31,1.6,.55,2.15,.55,.08,0,.16,0,.25,0,1.61-.22,2.17-.58,3.01-1.14,1.23-.8,2.92-1.89,6-1.91,2.87,.02,4.78,1.33,6.04,2.2,.96,.66,1.16,.77,1.5,.77,.22,0,.62-.05,1.27-.27,2-.67,3.97-1.01,5.87-1.01,4.38,0,7.51,1.74,9.44,3.32,2.18-.44,4.37-.65,6.55-.65,6.13,0,10.21,1.76,10.66,1.96,1.33,.6,2.3,1.8,2.61,3.22,.32,1.42-.07,2.92-1.01,4.02-1.48,1.7-2.5,3.59-3.19,5.6,3,.15,5.38,2.64,5.38,5.67Z"/>
  <g>
    <path class="cls-1" d="M90.47,97.11c-6.08,4.43-10.22,8.51-13.68,12.96,.37-2.18,.8-4.44,1.3-6.84,.1-.51,.22-1,.32-1.49,3.34-4.91,6.93-8.48,10.33-10.56,.54,1.66,1.03,3.32,1.47,4.94,.09,.33,.18,.65,.27,.99Z"/>
    <path class="cls-1" d="M94.15,117.11c-9.24,4.21-15.66,11.18-19.68,17.07,.04-1.99,.11-3.98,.24-5.96,.07-1.07,.13-2.14,.23-3.22,4.36-7.76,11.6-15.28,17.4-19.72,.72,3.73,1.33,7.65,1.8,11.64,0,.07,.02,.12,.02,.19Z"/>
    <path class="cls-1" d="M95.42,142.75c-.05,3.62-.2,5.97-.24,6.48-3,6.72-8.82,10.91-10.26,11.87-.96-.7-1.97-1.63-3.09-2.79,5.16-4.02,10.41-10.18,13.58-15.56Z"/>
    <path class="cls-1" d="M95.34,133.56c-8.58,5.34-15.42,13.47-18.84,17.97-.8-1.16-1.34-2.04-1.52-2.35-.16-1.62-.27-3.24-.36-4.94,0-.26-.03-.51-.04-.78,6.48-9.32,13.79-14.86,20.33-18.13,.19,2.49,.32,5.07,.42,7.88,0,.11,0,.23,0,.34Z"/>
    <path class="cls-1" d="M117.72,31.23c-1.43-4.66-5.13-7.56-7.17-8.9-.49-.32-.35-.96,.16-1.25,4.39-2.55,9.74-3.91,12.01-4.4-2.14-.71-8.04-2.19-15.48-.07-.25,.07-.51-.03-.66-.25-.15-.22-3.8-5.45-11.7-2.79-3.84,1.29-5.72,0-7.38-1.15-.99-.69-1.86-1.28-3.08-1.29h-.05c-1.47,0-2.16,.45-3.11,1.07-1.06,.7-2.39,1.56-5.17,1.93-1.86,.25-3.35-.27-4.81-.79-2.82-.98-5.25-1.84-9.93,2.84-.15,.15-.37,.21-.58,.15-.09-.03-8.5-2.31-15.06,.37,5.04,.58,9.44,2.92,11.24,4.03,.43,.27,.44,.88,.02,1.16-3.85,2.65-5.83,7.93-6.47,9.99,.02,1.79-.11,3.72-.46,5.8-1.39,8.31,2.04,10.51,6.01,13.05,2.96,1.9,6.04,3.87,7.28,8.51,1.59,5.96,4.73,7.17,8.07,8.44,1.55,.6,3.15,1.21,4.56,2.33,.57,.45,1.07,.9,1.54,1.31,2.07,1.82,3.45,3.02,7.63,3.02,3.59,0,4.87-1,6.49-2.26,.71-.55,1.51-1.17,2.57-1.76,.91-.49,1.86-.93,2.79-1.34,3.6-1.61,7-3.13,8.92-8.77,1.36-4.03,4.24-5.98,6.77-7.7,3.05-2.06,5.68-3.84,5.33-8.75-.29-4.05-.62-8.35-.29-12.55Zm-20.28,28.68c-.49,1.69-1.67,2.96-3.39,3.66-1.02,.42-2.04,.6-3.03,.6-2.84,0-5.39-1.49-6.82-3.09-1.44,1.77-3.76,2.81-6.35,2.83h-.05c-2.77,0-5.24-1.17-6.46-3.06-2.51-3.92,.63-7.86,.67-7.89,.21-.26,.58-.29,.83-.09,.26,.21,.29,.59,.09,.84-.1,.13-2.62,3.3-.59,6.49,.98,1.52,3.12,2.51,5.46,2.51h.04c2.41-.02,4.53-1.04,5.7-2.76-.26-2.38-.2-3.96,.03-6.72,.02-.33,.32-.57,.63-.55,.33,.03,.58,.31,.55,.64-.21,2.7-.27,4.23-.02,6.54,1.51,2.01,5.18,4.1,8.86,2.6,1.39-.58,2.3-1.55,2.7-2.9,.6-2.06-.14-4.47-.83-5.43-.19-.27-.13-.64,.14-.83,.27-.19,.63-.13,.83,.14,.84,1.19,1.71,3.98,1,6.46Z"/>
    <path class="cls-3" d="M84.16,35.76s-.09,0-.13-.01c-.32-.07-.52-.39-.45-.71,.69-3.14,.69-7.55-.01-13.88-.04-.33,.2-.62,.53-.66,.32-.04,.62,.2,.66,.53,.72,6.46,.71,11-.01,14.27-.06,.28-.31,.47-.58,.47Z"/>
    <path class="cls-3" d="M97.44,59.91c-.49,1.69-1.67,2.96-3.39,3.66-1.02,.42-2.04,.6-3.03,.6-2.84,0-5.39-1.49-6.82-3.09-1.44,1.77-3.76,2.81-6.35,2.83h-.05c-2.77,0-5.24-1.17-6.46-3.06-2.51-3.92,.63-7.86,.67-7.89,.21-.26,.58-.29,.83-.09,.26,.21,.29,.59,.09,.84-.1,.13-2.62,3.3-.59,6.49,.98,1.52,3.12,2.51,5.46,2.51h.04c2.41-.02,4.53-1.04,5.7-2.76-.26-2.38-.2-3.96,.03-6.72,.02-.33,.32-.57,.63-.55,.33,.03,.58,.31,.55,.64-.21,2.7-.27,4.23-.02,6.54,1.51,2.01,5.18,4.1,8.86,2.6,1.39-.58,2.3-1.55,2.7-2.9,.6-2.06-.14-4.47-.83-5.43-.19-.27-.13-.64,.14-.83,.27-.19,.63-.13,.83,.14,.84,1.19,1.71,3.98,1,6.46Z"/>
    <path class="cls-3" d="M74.16,39.94c-.29,0-.54-.21-.59-.51-.05-.33,.17-.63,.5-.68,6.75-1.02,13.54-1.02,20.18,0,.33,.05,.55,.35,.5,.68-.05,.33-.36,.55-.68,.5-6.53-1-13.2-1-19.83,0-.03,0-.06,0-.09,0Z"/>
    <path class="cls-3" d="M79.26,78.09c3.76-.64,7.52-.64,11.28,0,.32,.05,.54,.35,.51,.67-.33,2.74-.93,5.28-1.87,7.56-.12,.3-.42,.5-.74,.53-2.32,.18-4.59,.19-6.81,0-.33-.03-.61-.24-.73-.53-1.01-2.47-1.72-4.98-2.13-7.54-.05-.32,.18-.63,.5-.68Z"/>
    <path class="cls-3" d="M96.53,133.18c-.09-2.92-.24-5.58-.44-8.18-.2-2.82-.46-5.58-.78-8.23-.48-4.13-1.11-8.17-1.86-12.02-.63-3.23-1.33-6.16-2.09-8.96-.45-1.68-.97-3.41-1.54-5.14l-.48-1.43c-.08-.21-.27-.36-.48-.39-2.62-.36-5.28-.36-7.89,0-.23,.03-.42,.18-.49,.4,0,.06-1.78,5.37-3.55,13.74-.72,3.49-1.3,6.68-1.76,9.76-.79,5.19-1.34,10.37-1.64,15.42-.18,2.99-.27,6.03-.27,9.04,0,2.41,.07,4.81,.19,7.11,.09,1.77,.21,3.45,.37,5.14,0,.09,.04,.17,.09,.25,.03,.05,.66,1.12,1.75,2.69,.98,1.45,2.98,4.25,5.3,6.71,1.31,1.38,2.5,2.44,3.63,3.23,.09,.08,.22,.11,.34,.11,.1,0,.21-.03,.3-.09,.31-.19,7.54-4.65,11.11-12.72,.03-.06,.05-.12,.05-.2,0-.03,.22-2.98,.26-7.74,.03-2.64,0-5.5-.09-8.5Zm-18.44-29.96c.1-.51,.22-1,.32-1.49,3.34-4.91,6.93-8.48,10.33-10.56,.54,1.66,1.03,3.32,1.47,4.94,.09,.33,.18,.65,.27,.99-6.08,4.43-10.22,8.51-13.68,12.96,.37-2.18,.8-4.44,1.3-6.84Zm-3.38,24.99c.07-1.07,.13-2.14,.23-3.22,4.36-7.76,11.6-15.28,17.4-19.72,.72,3.73,1.33,7.65,1.8,11.64,0,.07,.02,.12,.02,.19-9.24,4.21-15.66,11.18-19.68,17.07,.04-1.99,.11-3.98,.24-5.96Zm1.8,23.32c-.8-1.16-1.34-2.04-1.52-2.35-.16-1.62-.27-3.24-.36-4.94,0-.26-.03-.51-.04-.78,6.48-9.32,13.79-14.86,20.33-18.13,.19,2.49,.32,5.07,.42,7.88,0,.11,0,.23,0,.34-8.58,5.34-15.42,13.47-18.84,17.97Zm18.67-2.3c-3,6.72-8.82,10.91-10.26,11.87-.96-.7-1.97-1.63-3.09-2.79,5.16-4.02,10.41-10.18,13.58-15.56-.05,3.62-.2,5.97-.24,6.48Z"/>
    <circle class="cls-3" cx="100.73" cy="77.91" r="4.06"/>
    <circle class="cls-3" cx="94.69" cy="87.3" r="1.67"/>
    <circle class="cls-3" cx="123.83" cy="30.76" r="1.67"/>
    <circle class="cls-3" cx="69.32" cy="77.91" r="4.06"/>
    <circle class="cls-3" cx="75.11" cy="87.3" r="1.67"/>
    <circle class="cls-3" cx="44.1" cy="30.76" r="1.67"/>
    <path class="cls-3" d="M62.53,48.13c-5.06,.84-8.16-6.67-4.03-15.69,4.13-9.02,14.64-14.55,17.76-10.65,3.72,4.67-5.44,10.09-7.51,14.78-2.06,4.69-1.16,10.72-6.22,11.56Z"/>
    <path class="cls-3" d="M105.83,48.13c5.06,.84,8.16-6.67,4.03-15.69-4.13-9.02-14.64-14.55-17.76-10.65-3.72,4.67,3.95,9.11,6.79,15.51,2.76,6.22,1.88,9.99,6.94,10.83Z"/>
    <path class="cls-3" d="M124.41,16.33c-.04-.19-.16-.34-.33-.42-.29-.13-7.17-3.15-16.78-.56-1.06-1.27-5.26-5.45-12.81-2.92-3.27,1.11-4.75,.09-6.31-.99-1.06-.73-2.16-1.49-3.75-1.5-1.9,0-2.81,.61-3.82,1.27-1.01,.66-2.17,1.41-4.68,1.74-1.56,.21-2.87-.25-4.25-.73-2.89-1-5.88-2.04-10.92,2.88-1.8-.44-10.1-2.24-16.54,.97-.17,.09-.28,.25-.32,.44-.03,.19,.04,.39,.17,.52,.07,.08,7,7.2,4.8,20.47-1.52,9.09,2.57,11.72,6.54,14.25,2.77,1.79,5.65,3.63,6.77,7.82,1.75,6.55,5.49,7.98,8.79,9.25,1.54,.59,2.99,1.15,4.25,2.15,.56,.44,1.04,.87,1.5,1.27,2.11,1.86,3.79,3.31,8.41,3.31,3.99,0,5.49-1.16,7.23-2.51,.7-.55,1.44-1.13,2.41-1.66,.86-.48,1.75-.88,2.7-1.3,3.68-1.66,7.48-3.36,9.56-9.49,1.24-3.65,3.81-5.4,6.31-7.09,3.01-2.04,5.88-3.98,5.88-8.83,0-.31,0-.64-.04-.98-.69-9.5-1.4-19.34,5.08-26.85,.12-.14,.18-.33,.13-.51Zm-11.73,36.19c-2.53,1.71-5.4,3.66-6.77,7.7-1.91,5.64-5.32,7.17-8.92,8.77-.93,.42-1.88,.85-2.79,1.34-1.06,.59-1.86,1.21-2.57,1.76-1.63,1.26-2.91,2.26-6.49,2.26-4.18,0-5.56-1.2-7.63-3.02-.47-.41-.97-.85-1.54-1.31-1.41-1.12-3.01-1.73-4.56-2.33-3.34-1.27-6.48-2.48-8.07-8.44-1.24-4.64-4.32-6.61-7.28-8.51-3.98-2.55-7.4-4.74-6.01-13.05,.35-2.08,.48-4.01,.46-5.8,.64-2.05,2.62-7.34,6.47-9.99,.42-.28,.41-.9-.02-1.16-1.81-1.12-6.21-3.45-11.24-4.03,6.56-2.68,14.97-.4,15.06-.37,.21,.06,.43,0,.58-.15,4.68-4.68,7.11-3.82,9.93-2.84,1.46,.51,2.95,1.03,4.81,.79,2.77-.37,4.11-1.23,5.17-1.93,.96-.62,1.65-1.07,3.11-1.07h.05c1.22,0,2.08,.6,3.08,1.29,1.67,1.15,3.54,2.43,7.38,1.15,7.89-2.66,11.55,2.57,11.7,2.79,.15,.22,.42,.31,.66,.25,7.44-2.12,13.34-.64,15.48,.07-2.27,.49-7.62,1.86-12.01,4.4-.51,.29-.65,.93-.16,1.25,2.04,1.33,5.75,4.24,7.17,8.9-.32,4.2,0,8.5,.29,12.55,.35,4.9-2.28,6.68-5.33,8.75Z"/>
    <path class="cls-3" d="M82.59,49.82c-.44-2.32-2.28-8.76-8.8-6.58-.45,.15-.67,.65-.45,1.07,.79,1.46,3.09,4.61,8.6,6.11,.37,.1,.72-.23,.65-.6Z"/>
    <path class="cls-3" d="M85.67,49.85c.42-2.32,2.21-8.93,8.86-6.6,.45,.16,.66,.61,.45,1.04-.73,1.49-2.94,4.78-8.66,6.16-.37,.09-.71-.23-.64-.6Z"/>
  </g>
</svg>