<?xml version="1.0" encoding="UTF-8"?>
<svg id="Layer_11" data-name="Layer 11" xmlns="http://www.w3.org/2000/svg" viewBox="0 0 168.22 168.22">
  <defs>
    <style>
      .cls-1 {
        fill: #22356d;
      }

      .cls-2 {
        fill: #f1f2f2;
      }

      .cls-3 {
        fill: #6e8ac2;
      }
    </style>
  </defs>
  <path class="cls-2" d="M84.66,129.93c-8.12,0-16.19-3.62-22.39-10.7-6.21-7.1-8.87-16.05-9.99-21.79-2.57-.08-5.54-.89-8.66-3.05-8.46-5.87-7.44-19.96-4-30.23,3.57-10.67,12.51-21.7,19.92-24.58,5.16-2.01,10.91-1.8,15.37,.57,3.81,2.03,6.46,5.55,7.44,9.93,.04,.18,.09,.37,.12,.55,.64,3.33,.57,6.3,.17,8.8,.66,0,1.34,0,2.04,.01,0-1.94,.04-4.14,.21-6.27,.05-.65,.16-1.35,.32-2.04,.98-4.15,3.86-7.47,7.89-9.14,5.49-2.28,12.49-1.34,18.73,2.51,7.39,4.56,16.02,13.88,18.62,24.41,2.22,8.98-.83,17.45-7.27,20.15-1.29,.54-4.41,1.48-8.21,0-.55,10.91-2.91,26.42-11.41,33.64-5.69,4.84-12.32,7.22-18.9,7.22Zm-28.11-43.72c.68,0,1.38,.15,2.07,.44,1.77,.74,2.75,2.59,2.86,4.5,0,.12,.88,12.99,8.32,21.49,6.41,7.33,17.33,10.92,27.29,2.45,7.87-6.7,8.36-29.56,7.91-37.04-.14-2.29,1.3-4.38,3.49-5.07,2.19-.69,4.56,.19,5.76,2.15,2.55,4.14,4.62,4.89,5.07,4.71,.91-.38,2.67-3.48,1.43-8.52-1.92-7.75-8.69-14.92-14.16-18.29-4.13-2.55-7.7-2.59-9.65-1.78-1.62,.67-1.89,1.79-1.98,2.16-.04,.18-.07,.39-.09,.58-.41,5.01,0,10.73,0,10.78,.12,1.61-.55,3.18-1.79,4.21-1.24,1.03-2.91,1.4-4.47,.99-3.95-1.04-10.24-.29-12.33,.08-1.99,.36-3.99-.51-5.09-2.21-1.09-1.69-1.07-3.88,.07-5.54,.07-.11,2.51-3.99,1.39-9.79l-.03-.13c-.37-1.65-1.15-2.73-2.4-3.39-1.87-.99-4.63-1.02-7.05-.08-3.61,1.4-11.06,9.47-14.06,18.43-3.14,9.37-2.33,17.07,.22,18.84,2.42,1.68,3.9,1.3,4.36,1.1,.85-.72,1.84-1.06,2.87-1.06Zm-2.96,1.14h0Z"/>
  <path class="cls-2" d="M62.33,91.54l-6.46-7.63s-.11,.07-.26,.25c.02-.02,1.71-2.03,2.09-8.04,.88-14.03,8.5-22.13,16.62-28.8,2.13-1.75,5.28-1.44,7.04,.69s1.44,5.28-.69,7.04c-7.57,6.22-12.38,12.01-12.98,21.69-.63,10.07-4.25,13.88-5.34,14.8Z"/>
  <path class="cls-2" d="M107.33,77.77c-1.96,0-3.82-1.16-4.62-3.08-4.34-10.45-15.38-18.26-15.49-18.33-2.26-1.58-2.82-4.7-1.24-6.96s4.69-2.82,6.95-1.25c.55,.38,13.52,9.5,19.01,22.7,1.06,2.55-.15,5.48-2.7,6.54-.63,.26-1.28,.38-1.92,.38Z"/>
  <path class="cls-2" d="M72.24,95.63c-2.15,0-4.14-.63-5.82-1.87-2.79-2.06-4.32-5.5-4.3-9.68,.02-5.2,2.29-9.25,6.07-10.83,3.68-1.54,7.83-.44,11.39,3.02,3.2,3.12,4.51,7.11,3.6,10.95-.86,3.64-3.69,6.7-7.19,7.81h0c-1.28,.4-2.54,.6-3.75,.6Zm2.24-5.37h0Zm-2.28-7.19c-.05,.28-.08,.63-.08,1.06,0,.82,.13,1.28,.22,1.5,.14-.01,.35-.04,.63-.13,.14-.05,.42-.32,.48-.6,.07-.32-.26-.88-.85-1.46-.14-.14-.28-.26-.4-.36Z"/>
  <path class="cls-2" d="M94.16,94.95c-.61,0-1.21-.06-1.79-.18h0c-2.11-.45-8.84-2.82-6.67-14.2,.8-4.21,4.38-7.55,8.7-8.13,4.3-.58,8.29,1.74,10.4,6.05,1.95,3.97,1.53,8.21-1.14,11.63-2.32,2.98-6.09,4.83-9.5,4.83Zm0-9.99h0Zm1.4-2.51s-.06,.06-.07,.08c-.15,.81-.21,1.44-.23,1.92,.26-.19,.5-.42,.64-.68,.09-.16,.19-.33-.08-.89-.1-.2-.19-.34-.25-.43Z"/>
  <path class="cls-2" d="M70.51,101.22c-.46,0-.92-.06-1.38-.19-7.97-2.28-10.24-8.07-10.47-8.72l9.42-3.35s-.02-.07-.08-.19c.03,.07,.86,1.79,3.87,2.65,2.66,.76,4.19,3.53,3.43,6.18-.63,2.2-2.63,3.63-4.8,3.63Z"/>
  <path class="cls-2" d="M96.71,100.47c-.96,0-1.62-.09-1.83-.12l1.52-9.88h-.08s2.1,.22,3.26-1.03c1.88-2.02,5.04-2.14,7.07-.26,2.02,1.88,2.14,5.04,.26,7.07-3.39,3.65-7.74,4.23-10.19,4.23Z"/>
  <path class="cls-2" d="M84.01,122.18c-2.69,0-5.38-.67-7.91-2.03-14.68-7.87-14.85-25.26-14.85-26,0-2.76,2.24-5,5-5s4.99,2.23,5,4.98c0,.55,.25,12.21,9.57,17.21,2.79,1.5,5.2,.72,6.73-.2,3.33-1.99,6.89-7.25,6.89-16.04,0-2.76,2.24-5,5-5s5,2.24,5,5c0,11.01-4.39,20.21-11.75,24.62-2.74,1.64-5.71,2.46-8.68,2.46Zm-12.76-28.03h0Z"/>
  <path class="cls-2" d="M80.53,104.68c-1.89,0-3.65-.81-4.86-2.23-1.44-1.7-1.99-4.15-1.5-6.72,.75-3.89,3.93-6.59,7.43-6.27,1.65,.15,3.14,.94,4.2,2.24,1.26,1.54,1.81,3.71,1.54,6.09-.44,3.9-3.23,6.8-6.64,6.89-.06,0-.11,0-.17,0Zm-3.12-8.04c.02,.77,1.15,2.59,3.3,2.79,1.85,.16,3.12-.96,3.28-1.81,.03-.17-.08-.9-.7-1.64-.7-.83-1.8-1.33-2.85-1.3-1.82,.05-2.93,1.28-3.03,1.96Z"/>
  <path class="cls-2" d="M87.87,104.65c-.05,0-.11,0-.16,0-3.31-.08-6.09-2.73-6.76-6.43-.43-2.36-.03-4.55,1.11-6.17,.96-1.36,2.4-2.26,4.04-2.52,3.65-.59,7.21,2.25,8.12,6.47h0c.5,2.3-.03,4.61-1.45,6.32-1.24,1.49-3.01,2.33-4.9,2.33Zm-3.42-6.55c.13,.62,1.47,1.58,3.25,1.3,1.82-.29,2.85-1.73,3.05-2.66l-1.41,.3,1.41-.3c.03-.14,.04-.27,.04-.38-.1-.51-1.06-1.67-2.82-1.72-1.13-.04-2.2,.45-2.89,1.28-.54,.66-.78,1.47-.63,2.17h0Z"/>
  <path class="cls-2" d="M84.04,94.56c-.29,0-.58-.03-.88-.08-2.72-.48-4.53-3.08-4.05-5.79,.61-3.42,.62-6.26,.06-8.66-.63-2.69,1.03-5.38,3.72-6.01,2.69-.63,5.38,1.03,6.01,3.72,.89,3.75,.9,7.9,.06,12.69-.43,2.42-2.54,4.13-4.92,4.13Z"/>
  <path class="cls-2" d="M103.24,93.28c-1.32,0-2.63-.52-3.61-1.54-1.91-1.99-1.84-5.16,.15-7.07,.25-.24,.36-1.59,.12-2.6-.69-2.67,.93-5.37,3.61-6.06,2.67-.69,5.41,.95,6.09,3.62,.2,.78,1.82,7.74-2.9,12.26-.97,.93-2.21,1.39-3.46,1.39Z"/>
  <path class="cls-2" d="M64.71,93.28c-1.31,0-2.61-.51-3.59-1.52-3.14-3.25-2.42-7.76-2.24-8.63l9.65,1.95c-.06-.08-.13-.17-.22-.27,.09,.09,.17,.18,.25,.27l.12,.02,.02-.1c0,.07-.01,.16-.01,.24,1.53,1.99,1.35,4.85-.49,6.63-.97,.94-2.22,1.41-3.48,1.41Z"/>
  <path class="cls-2" d="M70.62,78.32c.11-.15,.15-.27,.15-.27l-9.02-4.32c1.17-2.44,4.84-6.33,11.15-5.44,2.73,.39,4.63,2.92,4.24,5.66-.39,2.73-2.92,4.63-5.66,4.24-.69-.1-.82,.08-.86,.13Z"/>
  <path class="cls-2" d="M98.05,79.08c-.15-.25-.65-.85-1-.85-2.76,0-5-2.24-5-5s2.24-5,5-5c6.43,0,9.48,5.49,9.81,6.11l-8.86,4.63,.05,.1Z"/>
  <path class="cls-3" d="M109.98,77.76s1.88,31.33-9.66,41.15c-11.54,9.82-25.57,7.01-34.29-2.96-8.73-9.97-9.55-24.5-9.55-24.5,0,0-4.13,2.93-10.01-1.15-5.42-3.76-5.52-14.35-2.1-24.53,3.23-9.66,11.38-19.32,16.99-21.5,6.11-2.38,14.37-.83,16.12,6.93,.03,.13,.06,.26,.09,.39,1.56,8.11-2.18,13.56-2.18,13.56,0,0,8.57-1.56,14.49,0,0,0-.45-6.08,0-11.54,.04-.47,.11-.91,.21-1.34,1.56-6.61,10.44-8.83,19.12-3.49,6.63,4.09,14.18,12.39,16.39,21.35,3.09,12.47-6.89,21.82-15.61,7.64Z"/>
  <path class="cls-1" d="M84.61,126.6c-7.13,0-14.2-3.25-19.77-9.62-7.03-8.03-9.12-18.7-9.71-23.26-2.1,.56-5.49,.68-9.55-2.13-6.46-4.49-6.01-16.46-2.71-26.34,3.24-9.67,11.44-19.96,17.92-22.48,4.19-1.63,8.99-1.48,12.53,.4,2.96,1.58,4.94,4.22,5.71,7.66,.04,.17,.07,.3,.1,.44,.99,5.15,0,9.3-1,11.88,2.62-.28,6.52-.51,10.06,.02-.1-2.28-.18-6.1,.12-9.71,.04-.51,.12-1.02,.24-1.57,.73-3.09,2.81-5.48,5.87-6.74,4.48-1.86,10.32-1.01,15.63,2.26,6.8,4.2,14.73,12.72,17.1,22.32,1.79,7.21-.48,14.17-5.27,16.18-3.27,1.37-6.89,.15-10.17-3.29,.02,9.44-1.09,29.61-10.34,37.48-5.11,4.35-10.95,6.49-16.74,6.49Zm-28.13-36.74c.24,0,.48,.05,.7,.16,.51,.25,.85,.75,.89,1.32,0,.14,.91,14.12,9.16,23.55,8.88,10.16,22.07,11.31,32.07,2.8,10.81-9.19,9.12-39.54,9.1-39.84-.04-.73,.41-1.39,1.11-1.61,.69-.22,1.45,.06,1.83,.68,3.05,4.96,6.53,7.23,9.3,6.06,2.9-1.22,4.97-6.22,3.42-12.49-2.15-8.68-9.63-16.65-15.68-20.38-4.44-2.74-9.21-3.5-12.75-2.03-2.12,.88-3.5,2.44-3.99,4.53-.08,.38-.14,.74-.17,1.1-.43,5.27,0,11.24,0,11.3,.04,.51-.17,1.01-.57,1.33-.39,.33-.92,.45-1.42,.31-5.52-1.45-13.73,.01-13.81,.03-.64,.12-1.27-.16-1.61-.7-.35-.54-.34-1.23,.02-1.76,.03-.04,3.33-5.06,1.93-12.37-.02-.09-.04-.18-.06-.27-.59-2.61-1.97-4.48-4.12-5.62-2.75-1.46-6.54-1.55-9.89-.25-4.99,1.94-12.91,11.13-16.06,20.53-3.47,10.36-2.85,19.7,1.51,22.73,4.82,3.34,8.07,1.24,8.2,1.14,.27-.18,.58-.27,.9-.27Z"/>
  <path class="cls-1" d="M59.1,88.5c-.22,0-.43-.09-.58-.27-.27-.32-.23-.8,.08-1.08,.06-.05,2.81-2.61,3.32-10.76,.78-12.42,7.71-19.73,15.08-25.79,.33-.27,.81-.22,1.08,.11s.22,.81-.11,1.08c-6.62,5.44-13.74,12.28-14.52,24.7-.56,8.95-3.72,11.72-3.85,11.83-.14,.12-.32,.18-.5,.18Z"/>
  <path class="cls-1" d="M107.33,73.54c-.3,0-.59-.18-.71-.47-4.84-11.65-16.85-20.1-16.97-20.18-.35-.24-.43-.72-.19-1.07,.24-.35,.72-.43,1.07-.19,.51,.35,12.5,8.78,17.51,20.85,.16,.39-.02,.84-.41,1-.1,.04-.2,.06-.29,.06Z"/>
  <path class="cls-1" d="M72.24,91.4c-1.25,0-2.37-.35-3.31-1.04-1.68-1.23-2.59-3.46-2.58-6.25,.02-3.45,1.31-6.05,3.47-6.95,2.04-.86,4.52-.07,6.8,2.15,2.14,2.08,3,4.55,2.43,6.94-.53,2.22-2.23,4.08-4.35,4.75h0c-.87,.27-1.7,.41-2.47,.41Zm2.24-1.14h0Zm-2.95-11.91c-.39,0-.77,.07-1.12,.22-1.57,.66-2.52,2.73-2.53,5.54-.01,2.29,.68,4.07,1.95,5.01,1.12,.82,2.65,.96,4.41,.41,1.59-.5,2.92-1.96,3.32-3.64,.31-1.31,.21-3.32-2.01-5.48-1.38-1.34-2.79-2.05-4.02-2.05Z"/>
  <path class="cls-1" d="M94.2,90.72c-.33,0-.64-.03-.94-.09h0c-2.26-.49-4.69-2.49-3.4-9.27,.46-2.4,2.61-4.39,5.11-4.73,2.52-.34,4.72,1.02,6.04,3.72,1.22,2.5,.98,5.04-.67,7.16-1.51,1.93-4.04,3.21-6.13,3.21Zm-.62-1.59c1.47,.31,4.04-.64,5.54-2.56,.9-1.16,1.72-3.06,.51-5.54-1.03-2.1-2.62-3.12-4.46-2.87-1.84,.25-3.47,1.75-3.8,3.5-.85,4.47-.11,6.99,2.21,7.48h0Z"/>
  <path class="cls-1" d="M70.51,96.99c-.07,0-.14,0-.21-.03-6.04-1.73-7.58-5.89-7.64-6.07-.14-.4,.07-.84,.47-.98,.4-.14,.84,.07,.98,.46,.06,.16,1.39,3.62,6.62,5.11,.41,.12,.64,.54,.53,.95-.1,.34-.4,.56-.74,.56Z"/>
  <path class="cls-1" d="M96.72,96.24c-.69,0-1.14-.07-1.2-.08-.42-.06-.71-.45-.64-.87s.44-.69,.87-.64c.04,0,4.21,.59,6.92-2.33,.29-.31,.77-.33,1.08-.04,.31,.29,.33,.77,.04,1.08-2.32,2.5-5.4,2.88-7.08,2.88Z"/>
  <path class="cls-1" d="M84.02,117.96c-2,0-4-.51-5.91-1.54-12.47-6.69-12.62-22.11-12.62-22.27,0-.42,.34-.77,.77-.77h0c.42,0,.77,.34,.77,.77,0,.15,.16,14.67,11.81,20.92,3.54,1.89,7.41,1.79,10.9-.3,5.52-3.3,8.95-10.84,8.95-19.67,0-.42,.34-.77,.77-.77s.77,.34,.77,.77c0,9.37-3.71,17.41-9.69,20.99-2.08,1.25-4.29,1.87-6.5,1.87Z"/>
  <path class="cls-1" d="M80.52,100.44c-.66,0-1.22-.25-1.62-.73-.6-.71-.82-1.9-.57-3.18,.33-1.74,1.59-2.98,2.89-2.85,.51,.05,.96,.29,1.3,.7,.53,.65,.75,1.7,.61,2.94-.2,1.78-1.27,3.1-2.55,3.13-.02,0-.04,0-.07,0Zm.53-5.24c-.39,0-1.02,.59-1.22,1.61-.15,.79-.06,1.56,.23,1.9,.08,.09,.23,.21,.48,.19,.36,0,.93-.63,1.06-1.77,.11-.95-.08-1.56-.28-1.79-.09-.11-.17-.13-.25-.14-.01,0-.02,0-.03,0Z"/>
  <path class="cls-1" d="M87.87,100.42s-.04,0-.05,0c-1.28-.03-2.39-1.25-2.7-2.95-.22-1.23-.08-2.29,.4-2.97,.31-.43,.74-.71,1.25-.79,1.24-.21,2.85,1.03,3.31,3.18,.22,1.01,0,2.03-.57,2.72-.43,.52-1.01,.8-1.64,.8Zm-.81-5.2s-.03,0-.04,0c-.11,.02-.18,.06-.25,.16-.18,.26-.32,.87-.15,1.81,.19,1.04,.77,1.68,1.23,1.69h.01c.21,0,.37-.13,.46-.25,.21-.26,.39-.77,.25-1.42h0c-.29-1.35-1.17-1.99-1.53-1.99Z"/>
  <path class="cls-1" d="M84.03,90.33s-.09,0-.13-.01c-.42-.07-.7-.47-.62-.89,.71-4,.71-7.39,0-10.37-.1-.41,.16-.83,.57-.92,.41-.1,.83,.16,.92,.57,.75,3.18,.75,6.77,0,10.98-.07,.37-.39,.63-.75,.63Z"/>
  <path class="cls-1" d="M103.24,89.04c-.2,0-.4-.08-.55-.24-.29-.31-.28-.79,.02-1.08,2.38-2.28,1.32-6.62,1.31-6.66-.1-.41,.14-.83,.55-.93,.41-.11,.83,.14,.93,.55,.05,.21,1.3,5.24-1.73,8.15-.15,.14-.34,.21-.53,.21Z"/>
  <path class="cls-1" d="M64.71,89.04c-.2,0-.4-.08-.55-.23-1.73-1.79-1.16-4.73-1.14-4.85,.08-.42,.49-.68,.9-.6,.41,.08,.68,.49,.6,.9h0s-.43,2.28,.73,3.48c.29,.3,.29,.79-.02,1.08-.15,.14-.34,.22-.53,.22Z"/>
  <path class="cls-1" d="M66.25,76.65c-.11,0-.23-.02-.33-.08-.38-.18-.54-.64-.36-1.02,.63-1.31,2.85-3.63,6.73-3.08,.42,.06,.71,.45,.65,.87-.06,.42-.44,.71-.87,.65-3.72-.54-5.08,2.11-5.13,2.23-.13,.27-.41,.43-.69,.43Z"/>
  <path class="cls-1" d="M102.42,77.43c-.28,0-.54-.15-.68-.41h0s-1.64-3.02-4.7-3.02c-.42,0-.77-.34-.77-.77s.34-.77,.77-.77c4,0,5.97,3.68,6.06,3.84,.2,.38,.05,.84-.32,1.04-.11,.06-.24,.09-.35,.09Z"/>
</svg>