<?xml version="1.0" encoding="UTF-8"?>
<svg id="Layer_11" data-name="Layer 11" xmlns="http://www.w3.org/2000/svg" viewBox="0 0 168.22 168.22">
  <defs>
    <style>
      .cls-1 {
        fill: #7474a4;
      }

      .cls-2 {
        fill: #352b63;
      }

      .cls-3 {
        fill: #f1f2f2;
      }
    </style>
  </defs>
  <path class="cls-3" d="M49.68,96.52c-1.73,0-3.4-.89-4.33-2.5-4.35-7.51-3.08-14.6-1.84-21.45,.04-.23,.08-.46,.13-.7-.65-1.76-1.83-5.05-2.87-8.49-2.52-8.35-3.22-13.7,.65-16.35,3.39-2.32,7.34-.62,11.92,1.34,2.83,1.22,7.57,3.26,9.47,2.69,3.44-1.03,11.57-2.8,20.21-2.95,8.66-.15,16.87,1.42,20.01,2.1,2.86,.62,7.76-1.6,11-3.06,4.05-1.83,7.24-3.28,10.27-1.09,3.68,2.68,2.53,7.56,.36,14.7-.79,2.61-1.66,5.13-2.23,6.75,1.32,3.74,3.72,12.22,1.9,20.57-.59,2.7-3.25,4.41-5.95,3.82-2.7-.59-4.41-3.25-3.82-5.95,1.67-7.69-2.01-16.29-2.05-16.38-.51-1.18-.56-2.53-.11-3.74,.97-2.64,1.98-5.64,2.77-8.26-4.26,1.8-9.38,3.47-14.26,2.41-2.19-.47-9.93-1.99-17.73-1.88-7.02,.12-14.33,1.58-17.53,2.54-5.33,1.58-11.3-.95-16.13-3.02,.87,3.32,2.32,7.78,3.93,11.96,.33,.84,.42,1.76,.26,2.65-.12,.71-.25,1.41-.37,2.1-1.19,6.6-1.74,10.53,.65,14.67,1.38,2.39,.57,5.45-1.82,6.83-.79,.46-1.65,.67-2.5,.67Z"/>
  <path class="cls-3" d="M84.74,123.25c-10.59,0-14.03-4.14-17.67-8.52-2.09-2.52-4.47-5.37-9.12-8.45-2.47-1.63-4.65-3.29-6.48-4.94-2.05-1.84-2.22-5.01-.38-7.06,1.84-2.05,5-2.23,7.06-.38,1.47,1.32,3.25,2.67,5.31,4.03,5.89,3.89,9.02,7.65,11.3,10.4,3.12,3.75,4.16,5.02,10.52,4.91,5.97-.1,7.25-1.78,10.67-6.27,2.73-3.59,6.12-8.06,12.86-12.51,1.22-.81,2.26-1.74,3.09-2.77,1.73-2.15,4.88-2.5,7.03-.77,2.15,1.73,2.5,4.88,.77,7.03-1.48,1.85-3.29,3.48-5.38,4.86-5.32,3.52-8.03,7.08-10.42,10.22-3.75,4.94-7.64,10.04-18.46,10.22-.24,0-.47,0-.7,0Z"/>
  <path class="cls-3" d="M50.52,105.6c-5.28,0-9.58-4.3-9.58-9.58,0-4.62,3.29-8.58,7.83-9.42,2.72-.5,5.32,1.29,5.83,4.01,.13,.69,.11,1.38-.04,2.02,.65-.03,1.33,.06,1.99,.31,2.59,.96,3.91,3.84,2.95,6.43-1.38,3.73-4.99,6.24-8.97,6.24Z"/>
  <path class="cls-3" d="M119.68,101.75c-3.08,0-6.02-1.47-7.88-3.93-1.67-2.2-1.23-5.34,.98-7,.76-.58,1.64-.9,2.53-.99-.47-.69-.77-1.5-.84-2.38-.24-2.75,1.8-5.17,4.56-5.41,.22-.02,.44-.03,.66-.03,5.44,0,9.87,4.43,9.87,9.87s-4.43,9.87-9.87,9.87Zm.17-9.74h0Zm0,0s0,0,0,0c0,0,0,0,0,0Zm0,0s0,0,0,0c0,0,0,0,0,0Z"/>
  <path class="cls-1" d="M124.55,91.88c0,2.69-2.18,4.87-4.87,4.87-1.59,0-3-.76-3.89-1.94-1.12,1.39-2.52,2.68-4.23,3.82-14.49,9.59-11.83,19.38-26.2,19.61-14.38,.24-11.21-7.25-24.66-16.13-2.33-1.54-4.28-3.03-5.9-4.49-.64,1.74-2.32,2.98-4.28,2.98-2.53,0-4.58-2.05-4.58-4.58,0-2.25,1.61-4.11,3.74-4.5-3.79-6.55-2.15-12.79-.88-20.12,0,0-7.13-18.47-4.56-20.23,2.57-1.76,13.52,6.62,19.99,4.69,3.35-1,10.84-2.59,18.45-2.74,7.71-.15,15.53,1.17,19.3,1.98,7.34,1.59,17.67-6.23,19.39-4.99,1.71,1.25-4.27,17.46-4.27,17.46,0,0,4.41,10,2.35,19.45,.08,0,.16,0,.24,0,2.69,0,4.87,2.18,4.87,4.87Z"/>
  <path class="cls-2" d="M49.68,93.05c-.53,0-1.04-.27-1.33-.77-3.71-6.41-2.61-12.58-1.43-19.1,.1-.54,.2-1.09,.29-1.64-.47-1.24-1.92-5.15-3.13-9.16-2.7-8.92-2.23-11.44-.71-12.48,1.81-1.24,4.4-.1,7.99,1.48,3.8,1.67,8.54,3.75,12.58,2.97,.6-.12,1.32-.27,2.13-.44,3.91-.83,10.44-2.22,17-2.33,6.46-.1,12.84,.96,17.05,1.67,.78,.13,1.48,.25,2.08,.34,4.92,.76,10.05-1.66,13.8-3.43,3.04-1.43,4.87-2.3,6.26-1.29,.85,.62,2.61,1.9-3.53,18.67,.93,2.35,4.08,11.2,2.2,19.81-.18,.83-1,1.35-1.83,1.17-.83-.18-1.35-1-1.17-1.83,1.92-8.83-2.21-18.41-2.26-18.5-.16-.36-.17-.78-.04-1.15,2.15-5.83,4.27-12.78,4.48-15.35-.75,.27-1.87,.8-2.83,1.25-3.87,1.82-9.72,4.58-15.57,3.68-.61-.09-1.33-.21-2.13-.35-4.1-.69-10.33-1.74-16.49-1.62-6.26,.1-12.38,1.4-16.42,2.26-.84,.18-1.58,.33-2.19,.45-4.98,.96-10.21-1.33-14.4-3.18-1.72-.76-4.03-1.78-4.89-1.75-.46,2.08,2.14,11,5,18.41,.1,.26,.13,.54,.08,.81-.12,.7-.25,1.39-.37,2.07-1.12,6.21-2.08,11.58,1.07,17.02,.42,.73,.17,1.67-.56,2.1-.24,.14-.51,.21-.77,.21Z"/>
  <path class="cls-2" d="M84.7,119.78c-8.93,0-11.47-3.07-14.97-7.27-2.14-2.57-4.8-5.77-9.88-9.12-2.32-1.54-4.37-3.09-6.08-4.62-.63-.57-.68-1.54-.12-2.17,.57-.63,1.54-.68,2.17-.12,1.59,1.43,3.52,2.89,5.72,4.35,5.46,3.61,8.28,7,10.54,9.72,3.38,4.06,5.19,6.3,13.24,6.16,7.65-.12,9.8-2.95,13.37-7.64,2.57-3.38,5.77-7.59,12.02-11.72,1.52-1,2.83-2.18,3.88-3.5,.53-.66,1.5-.77,2.16-.24,.66,.53,.77,1.5,.24,2.16-1.25,1.56-2.8,2.96-4.58,4.14-5.81,3.84-8.71,7.65-11.27,11.02-3.7,4.86-6.62,8.7-15.76,8.85-.23,0-.46,0-.68,0Z"/>
  <path class="cls-2" d="M63.92,89.41c-4.63,0-8.4-3.77-8.4-8.4s3.77-8.4,8.4-8.4,8.4,3.77,8.4,8.4-3.77,8.4-8.4,8.4Zm0-15.26c-3.78,0-6.86,3.08-6.86,6.86s3.08,6.86,6.86,6.86,6.86-3.08,6.86-6.86-3.08-6.86-6.86-6.86Z"/>
  <path class="cls-2" d="M103.84,88.82c-4.63,0-8.4-3.77-8.4-8.4s3.77-8.4,8.4-8.4,8.4,3.77,8.4,8.4-3.77,8.4-8.4,8.4Zm0-15.26c-3.78,0-6.86,3.08-6.86,6.86s3.08,6.86,6.86,6.86,6.86-3.08,6.86-6.86-3.08-6.86-6.86-6.86Z"/>
  <path class="cls-2" d="M84.99,72.16c-2.57,0-4.66-2.09-4.66-4.66s2.09-4.66,4.66-4.66,4.66,2.09,4.66,4.66-2.09,4.66-4.66,4.66Zm0-7.79c-1.72,0-3.13,1.4-3.13,3.13s1.4,3.13,3.13,3.13,3.13-1.4,3.13-3.13-1.4-3.13-3.13-3.13Z"/>
  <path class="cls-2" d="M50.52,102.13c-3.37,0-6.12-2.74-6.12-6.11,0-2.95,2.1-5.48,5-6.01,.84-.15,1.63,.4,1.79,1.23,.15,.83-.4,1.63-1.23,1.79-1.44,.27-2.49,1.53-2.49,3,0,1.68,1.37,3.04,3.05,3.04,1.26,0,2.41-.79,2.85-1.98,.29-.79,1.17-1.2,1.97-.9,.79,.29,1.2,1.18,.9,1.97-.88,2.38-3.18,3.98-5.72,3.98Z"/>
  <path class="cls-2" d="M119.68,98.28c-2.03,0-3.89-.93-5.12-2.55-.51-.68-.38-1.64,.3-2.15,.68-.51,1.64-.38,2.15,.3,.64,.85,1.61,1.33,2.67,1.33,1.84,0,3.33-1.5,3.33-3.33s-1.5-3.33-3.33-3.33h-.11c-.82,.07-1.58-.56-1.65-1.41-.07-.84,.55-1.58,1.39-1.65,.12-.01,.25-.01,.37-.01,3.53,0,6.4,2.87,6.4,6.4s-2.87,6.4-6.4,6.4Z"/>
  <path class="cls-2" d="M84.99,88.82c-.42,0-.77-.34-.77-.77v-10.27c0-.42,.34-.77,.77-.77s.77,.34,.77,.77v10.27c0,.42-.34,.77-.77,.77Z"/>
  <path class="cls-2" d="M69.09,97.52c-.26,0-.51-.13-.66-.37-.22-.36-.1-.83,.26-1.05,4.33-2.61,7.3-9.32,7.33-9.39,.17-.39,.62-.56,1.01-.4,.39,.17,.57,.62,.4,1.01-.13,.29-3.19,7.22-7.94,10.09-.12,.07-.26,.11-.4,.11Z"/>
  <path class="cls-2" d="M96.21,95.38c-.09,0-.18-.02-.27-.05-5.1-1.9-4.35-8.78-4.32-9.07,.05-.42,.42-.71,.85-.67,.42,.05,.72,.43,.67,.85,0,.06-.64,5.97,3.33,7.45,.4,.15,.6,.59,.45,.99-.12,.31-.41,.5-.72,.5Z"/>
  <path class="cls-2" d="M117.09,68.34c-.1,0-.2-.02-.29-.06-.14-.06-3.55-1.46-5.4-2.91-.19-.15-.43-.43-.48-.91-.27-2.71,7.48-12.04,9.86-14.84,.27-.32,.76-.36,1.08-.09,.32,.27,.36,.76,.09,1.08-4.67,5.48-9.56,12.17-9.51,13.62,1.71,1.3,4.91,2.61,4.94,2.63,.39,.16,.58,.61,.42,1-.12,.3-.41,.48-.71,.48Zm-4.64-4.03h0Z"/>
  <path class="cls-2" d="M48.79,72.16c-.24,0-.48-.11-.63-.32-.25-.34-.17-.82,.18-1.07,2.4-1.71,5.06-4.08,5.18-4.93-.1-1.13-5.11-8.12-9.89-14.19-.26-.33-.21-.82,.13-1.08,.33-.26,.82-.2,1.08,.13,3.92,4.97,10.45,13.58,10.21,15.35-.26,1.9-4.51,5.05-5.81,5.98-.13,.1-.29,.14-.44,.14Z"/>
  <path class="cls-2" d="M79.61,73.56c-.1,0-.21-.02-.31-.06-3.4-1.49-3.67-5.38-3.33-7.23,.07-.42,.47-.7,.89-.62,.42,.07,.69,.47,.62,.89-.03,.17-.7,4.18,2.44,5.55,.39,.17,.57,.62,.4,1.01-.13,.29-.41,.46-.7,.46Z"/>
  <path class="cls-2" d="M88.88,74.5c-.3,0-.59-.18-.71-.48-.16-.39,.03-.84,.42-1,2.45-.99,2.98-4.21,2.99-4.24,.07-.42,.45-.7,.88-.64,.42,.07,.7,.46,.64,.88-.03,.17-.68,4.11-3.93,5.42-.09,.04-.19,.06-.29,.06Z"/>
  <path class="cls-2" d="M78.6,61.72c-.27,0-.53-.14-.67-.39-.21-.37-.08-.84,.29-1.05,.24-.14,5.89-3.3,11.04-.47,.37,.2,.51,.67,.3,1.04-.2,.37-.67,.51-1.04,.3-4.4-2.41-9.49,.43-9.54,.46-.12,.07-.25,.1-.38,.1Z"/>
  <path class="cls-2" d="M116,76.99c-.37,0-.69-.26-.75-.64-.56-3.31-4.2-6.11-4.24-6.14-.34-.26-.4-.74-.15-1.07,.26-.34,.74-.4,1.07-.15,.17,.13,4.15,3.19,4.82,7.11,.07,.42-.21,.81-.63,.88-.04,0-.09,.01-.13,.01Z"/>
  <path class="cls-2" d="M103.76,91.96c-4.55,0-7.06-2.67-7.18-2.8-.29-.31-.27-.8,.05-1.08,.31-.28,.79-.27,1.08,.04,.13,.13,3.01,3.14,8.25,2.08,5.3-1.08,7.04-4.09,7.11-4.21,.21-.37,.67-.5,1.04-.3,.37,.2,.51,.67,.3,1.04-.08,.15-2.11,3.76-8.15,4.98-.89,.18-1.72,.26-2.5,.26Z"/>
  <path class="cls-2" d="M53.43,76.99c-.06,0-.12,0-.18-.02-.41-.1-.66-.52-.56-.93,.06-.23,1.42-5.54,6.89-6.8,.41-.1,.82,.16,.92,.58,.1,.41-.16,.82-.58,.92-4.53,1.04-5.69,5.48-5.74,5.67-.09,.35-.4,.58-.74,.58Z"/>
  <path class="cls-2" d="M63.61,93.49c-1.56,0-3.24-.23-4.73-.9-4.38-1.99-6.1-6.86-6.17-7.07-.14-.4,.08-.84,.47-.97,.4-.14,.84,.07,.98,.47,.02,.04,1.59,4.46,5.36,6.17,3.82,1.73,9.29-.01,9.34-.03,.41-.13,.84,.09,.97,.49,.13,.4-.09,.84-.49,.97-.16,.05-2.74,.87-5.72,.87Z"/>
  <path class="cls-2" d="M82.67,92.16c.79,.32,.44,4.75-.73,6.55-1.17,1.79-3.59,1.48-3.82-.86s3.75-6.01,4.55-5.69Z"/>
  <path class="cls-2" d="M86.23,92.48c-.68,.22-.86,5.61,1.48,6.78s3.85-1.71,2.9-3.39c-.95-1.68-3.7-3.61-4.38-3.39Z"/>
  <path class="cls-2" d="M104.42,96.95c-1.42,0-2.52-.16-2.62-.18-.42-.06-.71-.46-.64-.87,.06-.42,.45-.71,.87-.64,1.37,.21,5.32,.45,7.06-.94,.33-.26,.81-.21,1.08,.12,.26,.33,.21,.81-.12,1.08-1.47,1.17-3.81,1.43-5.62,1.43Z"/>
  <path class="cls-2" d="M63.34,98.42c-2.94,0-5.63-1.5-5.75-1.57-.37-.21-.5-.68-.29-1.04,.21-.37,.67-.5,1.04-.29,.03,.02,2.81,1.56,5.52,1.35,.41-.04,.79,.28,.82,.71,.03,.42-.28,.79-.71,.82-.21,.02-.43,.02-.64,.02Z"/>
  <path class="cls-2" d="M88.38,108.63c-1.74,0-3.11-1.85-3.89-3.23-.8,1.39-2.17,3.22-3.81,3.22-.03,0-.07,0-.1,0-1.71-.08-2.81-1.87-3.38-3.13-1.33,1.28-3.36,2.84-4.69,2.02-1.62-1-.78-4.8-.34-6.39,.11-.41,.53-.65,.94-.54,.41,.11,.65,.54,.54,.94-.62,2.27-.7,4.41-.34,4.67,.38,.14,2.09-.98,3.61-2.63,.19-.2,.47-.29,.74-.23,.27,.06,.48,.26,.56,.53,.31,1.03,1.31,3.16,2.42,3.21,.01,0,.02,0,.03,0,1.01,0,2.46-2.2,3.12-3.7,.12-.28,.36-.47,.71-.46,.31,0,.58,.19,.7,.48,.52,1.27,1.97,3.83,3.29,3.69,1.41-.18,2.25-2.96,2.44-3.92,.06-.3,.28-.53,.57-.6,.29-.07,.6,.04,.78,.27,.73,.93,3.14,3.49,4.61,3.01,.29-.09,.48-.26,.62-.53,.47-.93,.05-2.68-.13-3.22-.14-.4,.08-.84,.48-.97,.41-.13,.84,.08,.97,.48,.09,.28,.88,2.74,.05,4.4-.32,.63-.84,1.08-1.51,1.3-1.94,.63-4.1-1.15-5.33-2.42-.5,1.46-1.51,3.49-3.37,3.73-.1,.01-.21,.02-.31,.02Z"/>
  <path class="cls-2" d="M87.81,113.95c-.26,0-.5-.13-.64-.34-.94-1.42-2.23-2.76-2.68-2.76h0c-.42,0-1.44,1.2-2.1,2.46-.13,.25-.39,.41-.68,.41h0c-.29,0-.55-.16-.68-.41-.54-1.05-1.57-2.68-2.16-3-.13,.08-.54,.77-.75,1.39-.13,.4-.56,.62-.97,.49-.4-.13-.62-.57-.49-.97,.15-.45,.71-1.95,1.73-2.34,.4-.16,.84-.12,1.23,.09,.75,.42,1.56,1.56,2.11,2.47,.66-.97,1.67-2.1,2.75-2.11,0,0,0,0,.01,0,1.06,0,2.26,1.21,3.09,2.24,.53-1.24,1.43-2.66,2.73-2.64,1.65,.07,2.33,1.74,2.47,2.71,.06,.42-.23,.81-.65,.87-.41,.07-.81-.23-.87-.65,0-.01-.23-1.37-1.02-1.4h0c-.43,0-1.26,1.45-1.69,2.94-.08,.29-.33,.5-.62,.55-.04,0-.08,0-.12,0Z"/>
</svg>